#N canvas 373 152 1468 780 12;
#X obj 17 132 phasor~;
#X obj 17 153 -~ 0.25;
#X obj 17 174 cos~;
#X obj 17 195 -~ 0.05;
#X obj 17 237 /~ 4;
#X obj 17 258 -~ 0.25;
#X obj 17 279 cos~;
#X obj 17 216 *~;
#X obj 167 132 phasor~;
#X obj 167 153 -~ 0.25;
#X obj 167 174 cos~;
#X obj 167 195 -~ 0.05;
#X obj 167 237 /~ 4;
#X obj 167 258 -~ 0.25;
#X obj 167 279 cos~;
#X obj 167 216 *~;
#X obj 317 132 phasor~;
#X obj 317 153 -~ 0.25;
#X obj 317 174 cos~;
#X obj 317 195 -~ 0.05;
#X obj 317 237 /~ 4;
#X obj 317 258 -~ 0.25;
#X obj 317 279 cos~;
#X obj 317 216 *~;
#X obj 467 132 phasor~;
#X obj 467 153 -~ 0.25;
#X obj 467 174 cos~;
#X obj 467 195 -~ 0.05;
#X obj 467 237 /~ 4;
#X obj 467 258 -~ 0.25;
#X obj 467 279 cos~;
#X obj 467 216 *~;
#X obj 617 132 phasor~;
#X obj 617 153 -~ 0.25;
#X obj 617 174 cos~;
#X obj 617 195 -~ 0.05;
#X obj 617 237 /~ 4;
#X obj 617 258 -~ 0.25;
#X obj 617 279 cos~;
#X obj 617 216 *~;
#X obj 780 146 /~ 2;
#X obj 780 167 +~ 0.5;
#X obj 733 181 sig~ 2;
#X obj 733 202 pow~;
#X obj 16 578 *~;
#X obj 17 344 lop~ 500;
#X obj 17 385 hip~ 100;
#X obj 84 235 cos~;
#X obj 84 214 -~ 0.1;
#X obj 84 256 /~ 2;
#X obj 234 235 cos~;
#X obj 234 256 /~ 2;
#X obj 374 235 cos~;
#X obj 374 256 /~ 2;
#X obj 524 235 cos~;
#X obj 524 256 /~ 2;
#X obj 674 235 cos~;
#X obj 674 256 /~ 2;
#X obj 234 214 -~ 0.2;
#X obj 374 214 -~ 0.3;
#X obj 524 214 -~ 0.4;
#X obj 674 214 -~ 0.5;
#X obj 17 300 *~;
#X obj 167 300 *~;
#X obj 317 300 *~;
#X obj 467 300 *~;
#X obj 617 300 *~;
#X obj 84 191 phasor~ 1;
#X obj 84 277 +~ 0.7;
#X obj 234 277 +~ 0.7;
#X obj 374 277 +~ 0.7;
#X obj 524 277 +~ 0.7;
#X obj 674 277 +~ 0.7;
#X obj 780 188 *~ 2.5;
#X obj 17 365 lop~ 500;
#X obj 17 323 /~ 8;
#X obj 17 5 inlet;
#X obj 780 125 osc~ 0.13;
#X obj 119 549 inlet;
#X obj 17 623 outlet~;
#X obj 171 465 *~ 0.6;
#X obj 60 497 delread~ delname 150;
#X obj 59 417 delwrite~ delname 700;
#X obj 840 76 inlet;
#X connect 0 0 1 0;
#X connect 1 0 2 0;
#X connect 2 0 3 0;
#X connect 3 0 7 0;
#X connect 4 0 5 0;
#X connect 5 0 6 0;
#X connect 6 0 62 0;
#X connect 7 0 4 0;
#X connect 8 0 9 0;
#X connect 9 0 10 0;
#X connect 10 0 11 0;
#X connect 11 0 15 0;
#X connect 12 0 13 0;
#X connect 13 0 14 0;
#X connect 14 0 63 0;
#X connect 15 0 12 0;
#X connect 16 0 17 0;
#X connect 17 0 18 0;
#X connect 18 0 19 0;
#X connect 19 0 23 0;
#X connect 20 0 21 0;
#X connect 21 0 22 0;
#X connect 22 0 64 0;
#X connect 23 0 20 0;
#X connect 24 0 25 0;
#X connect 25 0 26 0;
#X connect 26 0 27 0;
#X connect 27 0 31 0;
#X connect 28 0 29 0;
#X connect 29 0 30 0;
#X connect 30 0 65 0;
#X connect 31 0 28 0;
#X connect 32 0 33 0;
#X connect 33 0 34 0;
#X connect 34 0 35 0;
#X connect 35 0 39 0;
#X connect 36 0 37 0;
#X connect 37 0 38 0;
#X connect 38 0 66 0;
#X connect 39 0 36 0;
#X connect 40 0 41 0;
#X connect 41 0 73 0;
#X connect 42 0 43 0;
#X connect 43 0 39 1;
#X connect 43 0 31 1;
#X connect 43 0 23 1;
#X connect 43 0 15 1;
#X connect 43 0 7 1;
#X connect 44 0 79 0;
#X connect 45 0 74 0;
#X connect 46 0 44 0;
#X connect 46 0 82 0;
#X connect 47 0 49 0;
#X connect 48 0 47 0;
#X connect 49 0 68 0;
#X connect 50 0 51 0;
#X connect 51 0 69 0;
#X connect 52 0 53 0;
#X connect 53 0 70 0;
#X connect 54 0 55 0;
#X connect 55 0 71 0;
#X connect 56 0 57 0;
#X connect 57 0 72 0;
#X connect 58 0 50 0;
#X connect 59 0 52 0;
#X connect 60 0 54 0;
#X connect 61 0 56 0;
#X connect 62 0 75 0;
#X connect 63 0 75 0;
#X connect 64 0 75 0;
#X connect 65 0 75 0;
#X connect 66 0 75 0;
#X connect 67 0 48 0;
#X connect 67 0 58 0;
#X connect 67 0 59 0;
#X connect 67 0 60 0;
#X connect 67 0 61 0;
#X connect 68 0 62 1;
#X connect 69 0 63 1;
#X connect 70 0 64 1;
#X connect 71 0 65 1;
#X connect 72 0 66 1;
#X connect 73 0 43 1;
#X connect 74 0 46 0;
#X connect 75 0 45 0;
#X connect 76 0 0 0;
#X connect 76 0 8 0;
#X connect 76 0 16 0;
#X connect 76 0 24 0;
#X connect 76 0 32 0;
#X connect 77 0 40 0;
#X connect 78 0 44 1;
#X connect 80 0 82 0;
#X connect 81 0 80 0;
#X connect 81 0 44 0;
#X connect 83 0 77 1;
