#N canvas 1022 134 778 647 12;
#X obj 131 169 bng 15 250 50 0 empty empty empty 0 -6 0 8 -262144 -1
-1;
#X obj 203 149 loadbang;
#X floatatom 203 205 5 0 0 0 - - -;
#X obj 164 239 del;
#X msg 131 265 1;
#X msg 164 265 0;
#X text 86 168 start;
#X obj 43 269 noise~;
#X obj 44 338 *~;
#X obj 225 383 *~ 0.99;
#X floatatom 271 358 5 0 0 0 - - -;
#X text 44 38 3.4.2.10. Karplus Strong 1;
#X text 320 359 damping factor (between 0 and 1);
#X text 252 198 size of the noise input;
#X text 307 606 www.pd-tutorial.com;
#X text 315 580 Johannes Kreidler;
#X obj 274 332 hsl 128 15 0 1 0 0 empty empty empty -2 -8 0 10 -261234
-1 -1 0 1;
#X obj 43 497 delwrite~ buffer 500;
#X obj 224 296 vd~ buffer;
#X obj 359 500 dac~;
#X text 439 580 slightly modified;
#X text 235 37 slightly modified;
#X msg 203 177 18;
#X obj 307 156 expr 1000 / $f1;
#X obj 225 479 outlet~;
#X obj 218 75 inlet;
#X connect 0 0 3 0;
#X connect 0 0 4 0;
#X connect 1 0 22 0;
#X connect 2 0 3 1;
#X connect 2 0 18 0;
#X connect 3 0 5 0;
#X connect 4 0 8 1;
#X connect 5 0 8 1;
#X connect 7 0 8 0;
#X connect 8 0 17 0;
#X connect 9 0 17 0;
#X connect 9 0 19 0;
#X connect 9 0 19 1;
#X connect 9 0 24 0;
#X connect 10 0 9 1;
#X connect 16 0 10 0;
#X connect 18 0 9 0;
#X connect 22 0 2 0;
#X connect 23 0 2 0;
#X connect 25 0 0 0;
#X connect 25 0 23 0;
