#N canvas -9 -9 1920 969 12;
#X obj 37 36 adc~;
#N canvas 0 50 450 250 (subpatch) 0;
#X array voice 100 float 3;
#A 0 -0.000915555 -0.00122074 -0.00183111 -0.0021363 -0.00122074 -0.000915555
-0.000305185 0 0 0.000305185 0.000305185 0.000305185 0.00061037 0.00061037
0.00122074 0.00152593 0.0021363 0.00183111 0.00183111 0.00152593 0.00152593
0.00122074 0.000915555 0.000915555 0.000915555 0.000915555 0.00061037
0.00061037 0.000305185 0.000305185 0 0.000305185 -0.000305185 -0.000305185
-0.00061037 -0.000305185 0.00061037 0.00061037 0 -0.000305185 -0.000305185
0 0.000305185 -0.000305185 -0.000305185 -0.000305185 -0.000915555 -0.00152593
-0.00152593 -0.00152593 -0.00152593 -0.00183111 -0.0021363 -0.00183111
-0.00183111 -0.00183111 -0.00183111 -0.00122074 -0.00122074 -0.000915555
-0.000305185 0 0.000305185 0 0 0 -0.000305185 -0.000305185 0 0.00061037
0.000305185 -0.00061037 -0.000915555 -0.00061037 0.000305185 -0.000305185
-0.00061037 -0.000915555 -0.00061037 -0.00061037 -0.000305185 -0.00061037
-0.000305185 -0.00061037 -0.00122074 -0.00122074 -0.00061037 -0.00061037
-0.00061037 -0.00122074 -0.00152593 -0.000915555 -0.00061037 -0.000305185
-0.000305185 -0.00061037 -0.00061037 -0.00061037 -0.000305185 0;
#X coords 0 1 100 -1 200 140 1 0 0;
#X restore 446 32 graph;
#X obj 296 153 tabwrite~ voice;
#X obj 339 99 metro 100;
#X text 78 34 mic;
#X text 81 67 multiply signal;
#X text 197 154 mic to array;
#X obj 37 345 bng 15 250 50 0 empty empty empty 17 7 0 10 -262144 -1
-1;
#X obj 195 347 bng 15 250 50 0 empty empty empty 17 7 0 10 -262144
-1 -1;
#X obj 450 254 sigmund~;
#X obj 335 284 fiddle~;
#X obj 37 251 threshold~ 1 300 0.1 10;
#X msg 153 547 369;
#X msg 219 547 738;
#X msg 286 547 1107;
#X msg 365 547 1476;
#X msg 444 547 1845;
#X msg 516 547 2214;
#X msg 589 547 2583;
#X obj 155 623 osc~;
#X obj 296 850 hsl 128 15 0 0.5 0 0 empty empty Volume -2 -8 0 10 -261234
-1 -1 4400 1;
#X obj 155 865 *~;
#X obj 155 897 dac~ 1 2;
#X obj 37 842 tgl 25 0 empty empty empty 17 7 0 10 -261234 -1 -1 0
1;
#N canvas 975 336 755 297 record 0;
#X msg 72 97 stop;
#X obj 72 221 writesf~ 2;
#X obj 122 12 inlet~;
#X msg 122 96 open -bytes 3 ./resonator.wav \, start;
#X obj 72 12 inlet;
#X obj 72 57 sel 0 1;
#X connect 0 0 1 0;
#X connect 2 0 1 0;
#X connect 3 0 1 0;
#X connect 4 0 5 0;
#X connect 5 0 0 0;
#X connect 5 1 3 0;
#X restore 37 897 pd record;
#X obj 450 283 mtof;
#X floatatom 552 284 5 0 0 0 - - -;
#X floatatom 450 327 5 0 0 0 - - -;
#X obj 37 68 *~ 10;
#X obj 971 103 text define -k \$0-tuning;
#A set 136.1 272.2 408.3 544.4 680.5 816.6 952.7 1088.8 1224.9 1361
1497.1 1633.2 1769.3 1905.4 2041.5 2177.6 2313.7 2449.8 2585.9 2722
2858.1;
#X obj 905 34 bng 15 250 50 0 empty empty empty 17 7 0 10 -262144 -1
-1;
#X obj 971 160 t b p;
#X obj 971 212 text get -s text t;
#X msg 971 187 0;
#X obj 971 237 list trim;
#X msg 1071 68 read ./overtone.txt;
#X text 802 278 Limited to 21 overtones;
#X obj 971 277 unpack f f f f f f f f f f f f f f f f f f f f f;
#X floatatom 971 342 5 0 0 0 - - -;
#X floatatom 1009 342 5 0 0 0 - - -;
#X floatatom 1047 342 5 0 0 0 - - -;
#X floatatom 1085 342 5 0 0 0 - - -;
#X floatatom 1123 342 5 0 0 0 - - -;
#X floatatom 1161 342 5 0 0 0 - - -;
#X floatatom 1199 342 5 0 0 0 - - -;
#X floatatom 1237 342 5 0 0 0 - - -;
#X floatatom 1275 342 5 0 0 0 - - -;
#X floatatom 1313 342 5 0 0 0 - - -;
#X floatatom 1351 342 5 0 0 0 - - -;
#X floatatom 1389 342 5 0 0 0 - - -;
#X floatatom 1427 342 5 0 0 0 - - -;
#X floatatom 1465 342 5 0 0 0 - - -;
#X floatatom 1503 342 5 0 0 0 - - -;
#X floatatom 1541 342 5 0 0 0 - - -;
#X floatatom 1579 342 5 0 0 0 - - -;
#X floatatom 1617 342 5 0 0 0 - - -;
#X floatatom 1655 342 5 0 0 0 - - -;
#X floatatom 1693 342 5 0 0 0 - - -;
#X floatatom 1731 342 5 0 0 0 - - -;
#X obj 971 637 tgl 15 0 empty empty empty 17 7 0 10 -261234 -1 -1 0
1;
#X floatatom 1031 634 5 0 0 0 - - -;
#X obj 971 694 bng 15 250 50 0 empty empty empty 17 7 0 10 -262144
-1 -1;
#N canvas 368 434 469 253 counter 0;
#X obj 72 53 int 1;
#X obj 149 52 + 1;
#X obj 149 95 % 21;
#X floatatom 72 164 5 0 0 2 global - -;
#X floatatom 149 163 5 0 0 2 local - -;
#X msg 149 5 1;
#X obj 72 5 inlet;
#X obj 230 181 outlet;
#X text 34 5 bang;
#X text 184 95 limited by 21;
#X connect 0 0 1 0;
#X connect 0 0 2 0;
#X connect 0 0 3 0;
#X connect 1 0 0 1;
#X connect 2 0 4 0;
#X connect 4 0 7 0;
#X connect 5 0 0 0;
#X connect 6 0 0 0;
#X restore 971 713 pd counter;
#X floatatom 971 741 5 0 0 0 - - -;
#X obj 1034 608 hsl 128 15 0 500 0 0 empty empty Tempo -2 -8 0 10 -261234
-1 -1 2611 1;
#X text 855 33 loader;
#X text 900 635 sequencer;
#X obj 1413 759 sel 0 1 2 3 4 5 6 7 8 9 10 11 12 13 14 15 16 17 18
19 20;
#X obj 896 439 cond;
#X obj 888 468 bng 15 250 50 0 empty empty empty 17 7 0 10 -262144
-1 -1;
#X obj 909 468 bng 15 250 50 0 empty empty empty 17 7 0 10 -262144
-1 -1;
#X obj 931 468 bng 15 250 50 0 empty empty empty 17 7 0 10 -262144
-1 -1;
#X obj 971 769 ==;
#X msg 1014 769 20;
#X floatatom 971 801 5 0 0 0 - - -;
#X obj 971 831 sel 1;
#X obj 897 736 bng 15 250 50 0 empty empty empty 17 7 0 10 -262144
-1 -1;
#X obj 339 56 loadbang;
#X obj 971 49 t b b;
#X obj 971 20 loadbang;
#X obj 503 283 mtof;
#X floatatom 503 326 5 0 0 0 - - -;
#X obj 971 670 metro 80;
#X msg 78 547 0;
#X msg 1769 407 0;
#X msg 926 341 0;
#X obj 155 450 vline~;
#X obj 213 450 bob~;
#X obj 333 756 *~ 0.6;
#X obj 222 788 delread~ delname 150;
#X obj 221 708 delwrite~ delname 700;
#X obj 514 747 *~;
#X obj 661 764 hsl 128 15 0 50 0 0 empty empty feedback -2 -8 0 10
-261234 -1 -1 4900 1;
#X obj 1382 93 text define -k \$0-tuning;
#A set 369 738 1107 1476 1845 2214 2583 2952 3321 3690 4059 4428 4797
5166 5535 5904 6273 6642 7011 7380 7749;
#X obj 1316 24 bng 15 250 50 0 empty empty empty 17 7 0 10 -262144
-1 -1;
#X obj 1382 150 t b p;
#X obj 1382 202 text get -s text t;
#X msg 1382 177 0;
#X obj 1382 227 list trim;
#X text 1266 23 loader;
#X obj 1382 39 t b b;
#X obj 1382 10 loadbang;
#X msg 1482 58 read ./overtones/1.txt;
#X obj 515 707 delread~ audio-buffer 0;
#X obj 518 649 hsl 128 15 0 127 0 0 empty empty Delay_Time -2 -8 0
10 -261234 -1 -1 0 1;
#X floatatom 515 677 5 0 0 0 - - -;
#X obj 70 191 delwrite~ audio-buffer 5000;
#X connect 0 0 28 0;
#X connect 3 0 2 0;
#X connect 7 0 84 0;
#X connect 9 0 25 0;
#X connect 9 1 26 0;
#X connect 9 1 80 0;
#X connect 11 0 7 0;
#X connect 11 1 8 0;
#X connect 12 0 19 0;
#X connect 13 0 19 0;
#X connect 14 0 19 0;
#X connect 15 0 19 0;
#X connect 16 0 19 0;
#X connect 17 0 19 0;
#X connect 18 0 19 0;
#X connect 19 0 21 0;
#X connect 19 0 90 0;
#X connect 20 0 21 1;
#X connect 21 0 22 0;
#X connect 21 0 22 1;
#X connect 21 0 24 1;
#X connect 23 0 24 0;
#X connect 25 0 27 0;
#X connect 27 0 68 0;
#X connect 28 0 2 0;
#X connect 28 0 9 0;
#X connect 28 0 10 0;
#X connect 28 0 11 0;
#X connect 28 0 106 0;
#X connect 29 0 31 0;
#X connect 30 0 78 0;
#X connect 31 0 33 0;
#X connect 31 1 32 3;
#X connect 32 0 34 0;
#X connect 33 0 32 0;
#X connect 34 0 37 0;
#X connect 35 0 29 0;
#X connect 37 0 38 0;
#X connect 37 0 85 0;
#X connect 37 1 39 0;
#X connect 37 2 40 0;
#X connect 37 3 41 0;
#X connect 37 4 42 0;
#X connect 37 5 43 0;
#X connect 37 6 44 0;
#X connect 37 7 45 0;
#X connect 37 8 46 0;
#X connect 37 9 47 0;
#X connect 37 10 48 0;
#X connect 37 11 49 0;
#X connect 37 12 50 0;
#X connect 37 13 51 0;
#X connect 37 14 52 0;
#X connect 37 15 53 0;
#X connect 37 16 54 0;
#X connect 37 17 55 0;
#X connect 37 18 56 0;
#X connect 37 19 57 0;
#X connect 37 20 58 0;
#X connect 38 0 68 1;
#X connect 38 0 19 0;
#X connect 39 0 68 2;
#X connect 39 0 19 0;
#X connect 40 0 19 0;
#X connect 41 0 19 0;
#X connect 42 0 19 0;
#X connect 43 0 19 0;
#X connect 44 0 19 0;
#X connect 45 0 19 0;
#X connect 46 0 19 0;
#X connect 47 0 19 0;
#X connect 59 0 82 0;
#X connect 60 0 82 1;
#X connect 61 0 62 0;
#X connect 62 0 63 0;
#X connect 63 0 67 0;
#X connect 63 0 72 0;
#X connect 64 0 60 0;
#X connect 67 0 38 0;
#X connect 67 1 39 0;
#X connect 67 2 40 0;
#X connect 67 3 41 0;
#X connect 67 4 42 0;
#X connect 67 5 43 0;
#X connect 67 6 44 0;
#X connect 67 7 45 0;
#X connect 67 8 46 0;
#X connect 67 9 47 0;
#X connect 67 10 48 0;
#X connect 67 11 49 0;
#X connect 67 12 50 0;
#X connect 67 13 51 0;
#X connect 67 14 52 0;
#X connect 67 15 53 0;
#X connect 67 16 54 0;
#X connect 67 17 55 0;
#X connect 67 18 56 0;
#X connect 67 19 57 0;
#X connect 67 20 58 0;
#X connect 67 21 84 0;
#X connect 68 0 69 0;
#X connect 68 1 70 0;
#X connect 68 2 71 0;
#X connect 69 0 59 0;
#X connect 72 0 74 0;
#X connect 73 0 72 1;
#X connect 74 0 75 0;
#X connect 75 0 76 0;
#X connect 76 0 59 0;
#X connect 77 0 3 0;
#X connect 78 0 29 0;
#X connect 78 1 35 0;
#X connect 79 0 78 0;
#X connect 80 0 81 0;
#X connect 81 0 64 0;
#X connect 82 0 61 0;
#X connect 83 0 19 0;
#X connect 84 0 19 0;
#X connect 88 0 90 0;
#X connect 89 0 88 0;
#X connect 89 0 21 0;
#X connect 91 0 21 0;
#X connect 92 0 91 1;
#X connect 93 0 95 0;
#X connect 94 0 100 0;
#X connect 95 0 97 0;
#X connect 95 1 96 3;
#X connect 96 0 98 0;
#X connect 97 0 96 0;
#X connect 98 0 37 0;
#X connect 100 0 93 0;
#X connect 100 1 102 0;
#X connect 101 0 100 0;
#X connect 102 0 93 0;
#X connect 103 0 91 0;
#X connect 104 0 105 0;
#X connect 105 0 103 0;
