#N canvas -9 -9 1920 969 12;
#X obj 37 64 adc~;
#N canvas 0 50 450 250 (subpatch) 0;
#X array voice 100 float 3;
#A 0 -0.00061037 -0.00152593 -0.00152593 -0.000915555 -0.00061037 -0.00061037
-0.000915555 -0.000305185 -0.000305185 -0.000305185 0 0 0.000305185
0 0.000305185 0 0 -0.000305185 -0.00061037 -0.00061037 -0.00061037
-0.000305185 -0.00061037 0 0 0.00061037 0.000305185 -0.000305185 -0.000305185
0 0.000915555 0.00152593 0.00152593 0.00122074 0.000915555 0.000915555
0.000915555 0.000915555 0.00061037 0.00061037 0.00061037 0.00061037
0.000305185 -0.00061037 -0.00061037 0.000305185 0.00152593 0.00122074
0.00061037 -0.000305185 -0.000305185 0 0.000915555 0.000915555 0.00061037
0.00061037 0.000305185 0.00061037 0.00122074 0.00122074 0.00061037
0.00061037 0.00061037 0.00122074 0.00152593 0.000915555 0.000305185
-0.000305185 -0.00061037 -0.000915555 -0.000915555 -0.000915555 -0.000915555
-0.00122074 -0.00152593 -0.00122074 -0.000915555 -0.00061037 -0.00061037
0 0.000305185 0.000305185 0.00061037 0.00061037 0 -0.000915555 -0.00122074
-0.00061037 0 0 -0.000915555 -0.00152593 -0.00122074 -0.00061037 -0.00061037
-0.00061037 -0.00061037 -0.00061037 -0.00061037 -0.00061037;
#X coords 0 1 100 -1 200 140 1 0 0;
#X restore 446 60 graph;
#X obj 296 181 tabwrite~ voice;
#X obj 339 127 metro 100;
#X text 78 62 mic;
#X text 81 95 multiply signal;
#X text 197 182 mic to array;
#X obj 37 373 bng 15 250 50 0 empty empty empty 17 7 0 10 -262144 -1
-1;
#X obj 195 375 bng 15 250 50 0 empty empty empty 17 7 0 10 -262144
-1 -1;
#X obj 450 282 sigmund~;
#X obj 335 312 fiddle~;
#X obj 37 279 threshold~ 1 300 0.1 10;
#X obj 450 311 mtof;
#X floatatom 552 312 5 0 0 0 - - -;
#X floatatom 450 355 5 0 0 0 - - -;
#X obj 37 96 *~ 10;
#X obj 971 103 text define -k \$0-tuning;
#A set 136.1 272.2 408.3 544.4 680.5 816.6 952.7 1088.8 1224.9 1361
1497.1 1633.2 1769.3 1905.4 2041.5 2177.6 2313.7 2449.8 2585.9 2722
2858.1;
#X obj 905 34 bng 15 250 50 0 empty empty empty 17 7 0 10 -262144 -1
-1;
#X obj 971 160 t b p;
#X obj 971 212 text get -s text t;
#X msg 971 187 0;
#X obj 971 237 list trim;
#X msg 1071 68 read ./overtone.txt;
#X text 802 278 Limited to 21 overtones;
#X obj 971 277 unpack f f f f f f f f f f f f f f f f f f f f f;
#X floatatom 971 342 5 0 0 0 - - -;
#X floatatom 1009 342 5 0 0 0 - - -;
#X floatatom 1047 342 5 0 0 0 - - -;
#X floatatom 1085 342 5 0 0 0 - - -;
#X floatatom 1123 342 5 0 0 0 - - -;
#X floatatom 1161 342 5 0 0 0 - - -;
#X floatatom 1199 342 5 0 0 0 - - -;
#X floatatom 1237 342 5 0 0 0 - - -;
#X floatatom 1275 342 5 0 0 0 - - -;
#X floatatom 1313 342 5 0 0 0 - - -;
#X floatatom 1351 342 5 0 0 0 - - -;
#X floatatom 1389 342 5 0 0 0 - - -;
#X floatatom 1427 342 5 0 0 0 - - -;
#X floatatom 1465 342 5 0 0 0 - - -;
#X floatatom 1503 342 5 0 0 0 - - -;
#X floatatom 1541 342 5 0 0 0 - - -;
#X floatatom 1579 342 5 0 0 0 - - -;
#X floatatom 1617 342 5 0 0 0 - - -;
#X floatatom 1655 342 5 0 0 0 - - -;
#X floatatom 1693 342 5 0 0 0 - - -;
#X floatatom 1731 342 5 0 0 0 - - -;
#X text 855 33 loader;
#X obj 503 701 cond;
#X obj 495 730 bng 15 250 50 0 empty empty empty 17 7 0 10 -262144
-1 -1;
#X obj 516 730 bng 15 250 50 0 empty empty empty 17 7 0 10 -262144
-1 -1;
#X obj 538 730 bng 15 250 50 0 empty empty empty 17 7 0 10 -262144
-1 -1;
#X obj 339 84 loadbang;
#X obj 971 49 t b b;
#X obj 971 20 loadbang;
#X obj 503 311 mtof;
#X floatatom 503 354 5 0 0 0 - - -;
#X msg 925 341 0;
#X obj 1382 93 text define -k \$0-tuning;
#A set 369 738 1107 1476 1845 2214 2583 2952 3321 3690 4059 4428 4797
5166 5535 5904 6273 6642 7011 7380 7749;
#X obj 1316 24 bng 15 250 50 0 empty empty empty 17 7 0 10 -262144
-1 -1;
#X obj 1382 150 t b p;
#X obj 1382 202 text get -s text t;
#X msg 1382 177 0;
#X obj 1382 227 list trim;
#X text 1266 23 loader;
#X obj 1382 39 t b b;
#X obj 1382 10 loadbang;
#X msg 1482 58 read ./overtones/1.txt;
#X obj 70 219 delwrite~ audio-buffer 5000;
#X obj 1259 842 inst2;
#X floatatom 1275 817 5 0 0 0 - - -;
#X obj 1278 795 hsl 128 15 0 1 0 0 empty empty volume -2 -8 0 10 -261234
-1 -1 9800 1;
#X obj 1431 898 dac~ 1 2;
#X obj 1426 801 hsl 128 15 0 500 0 0 empty empty lfo -2 -8 0 10 -261234
-1 -1 11700 1;
#X floatatom 1423 824 5 0 0 0 - - -;
#X obj 1601 819 *~;
#X obj 1668 821 hsl 128 15 0 1 0 0 empty empty feedback -2 -8 0 10
-261234 -1 -1 7400 1;
#X obj 1602 779 delread~ audio-buffer 0;
#X obj 1605 721 hsl 128 15 0 127 0 0 empty empty Delay_Time -2 -8 0
10 -261234 -1 -1 12500 1;
#X floatatom 1602 749 5 0 0 0 - - -;
#X floatatom 495 824 5 0 0 0 - - -;
#X obj 562 681 cond;
#X obj 554 710 bng 15 250 50 0 empty empty empty 17 7 0 10 -262144
-1 -1;
#X obj 575 710 bng 15 250 50 0 empty empty empty 17 7 0 10 -262144
-1 -1;
#X obj 597 710 bng 15 250 50 0 empty empty empty 17 7 0 10 -262144
-1 -1;
#X obj 625 656 cond;
#X obj 617 685 bng 15 250 50 0 empty empty empty 17 7 0 10 -262144
-1 -1;
#X obj 638 685 bng 15 250 50 0 empty empty empty 17 7 0 10 -262144
-1 -1;
#X obj 660 685 bng 15 250 50 0 empty empty empty 17 7 0 10 -262144
-1 -1;
#X obj 685 637 cond;
#X obj 677 666 bng 15 250 50 0 empty empty empty 17 7 0 10 -262144
-1 -1;
#X obj 698 666 bng 15 250 50 0 empty empty empty 17 7 0 10 -262144
-1 -1;
#X obj 720 666 bng 15 250 50 0 empty empty empty 17 7 0 10 -262144
-1 -1;
#X obj 746 616 cond;
#X obj 738 645 bng 15 250 50 0 empty empty empty 17 7 0 10 -262144
-1 -1;
#X obj 759 645 bng 15 250 50 0 empty empty empty 17 7 0 10 -262144
-1 -1;
#X obj 781 645 bng 15 250 50 0 empty empty empty 17 7 0 10 -262144
-1 -1;
#X obj 807 597 cond;
#X obj 799 626 bng 15 250 50 0 empty empty empty 17 7 0 10 -262144
-1 -1;
#X obj 820 626 bng 15 250 50 0 empty empty empty 17 7 0 10 -262144
-1 -1;
#X obj 842 626 bng 15 250 50 0 empty empty empty 17 7 0 10 -262144
-1 -1;
#X obj 871 580 cond;
#X obj 863 609 bng 15 250 50 0 empty empty empty 17 7 0 10 -262144
-1 -1;
#X obj 884 609 bng 15 250 50 0 empty empty empty 17 7 0 10 -262144
-1 -1;
#X obj 906 609 bng 15 250 50 0 empty empty empty 17 7 0 10 -262144
-1 -1;
#X obj 929 559 cond;
#X obj 921 588 bng 15 250 50 0 empty empty empty 17 7 0 10 -262144
-1 -1;
#X obj 942 588 bng 15 250 50 0 empty empty empty 17 7 0 10 -262144
-1 -1;
#X obj 964 588 bng 15 250 50 0 empty empty empty 17 7 0 10 -262144
-1 -1;
#X obj 989 542 cond;
#X obj 981 571 bng 15 250 50 0 empty empty empty 17 7 0 10 -262144
-1 -1;
#X obj 1002 571 bng 15 250 50 0 empty empty empty 17 7 0 10 -262144
-1 -1;
#X obj 1024 571 bng 15 250 50 0 empty empty empty 17 7 0 10 -262144
-1 -1;
#X obj 1048 525 cond;
#X obj 1040 554 bng 15 250 50 0 empty empty empty 17 7 0 10 -262144
-1 -1;
#X obj 1061 554 bng 15 250 50 0 empty empty empty 17 7 0 10 -262144
-1 -1;
#X obj 1083 554 bng 15 250 50 0 empty empty empty 17 7 0 10 -262144
-1 -1;
#X obj 1109 507 cond;
#X obj 1101 536 bng 15 250 50 0 empty empty empty 17 7 0 10 -262144
-1 -1;
#X obj 1122 536 bng 15 250 50 0 empty empty empty 17 7 0 10 -262144
-1 -1;
#X obj 1144 536 bng 15 250 50 0 empty empty empty 17 7 0 10 -262144
-1 -1;
#X obj 1170 489 cond;
#X obj 1162 518 bng 15 250 50 0 empty empty empty 17 7 0 10 -262144
-1 -1;
#X obj 1183 518 bng 15 250 50 0 empty empty empty 17 7 0 10 -262144
-1 -1;
#X obj 1205 518 bng 15 250 50 0 empty empty empty 17 7 0 10 -262144
-1 -1;
#X obj 1232 472 cond;
#X obj 1224 501 bng 15 250 50 0 empty empty empty 17 7 0 10 -262144
-1 -1;
#X obj 1245 501 bng 15 250 50 0 empty empty empty 17 7 0 10 -262144
-1 -1;
#X obj 1267 501 bng 15 250 50 0 empty empty empty 17 7 0 10 -262144
-1 -1;
#X obj 1293 457 cond;
#X obj 1285 486 bng 15 250 50 0 empty empty empty 17 7 0 10 -262144
-1 -1;
#X obj 1306 486 bng 15 250 50 0 empty empty empty 17 7 0 10 -262144
-1 -1;
#X obj 1328 486 bng 15 250 50 0 empty empty empty 17 7 0 10 -262144
-1 -1;
#X obj 1355 443 cond;
#X obj 1347 472 bng 15 250 50 0 empty empty empty 17 7 0 10 -262144
-1 -1;
#X obj 1368 472 bng 15 250 50 0 empty empty empty 17 7 0 10 -262144
-1 -1;
#X obj 1390 472 bng 15 250 50 0 empty empty empty 17 7 0 10 -262144
-1 -1;
#X obj 1417 428 cond;
#X obj 1409 457 bng 15 250 50 0 empty empty empty 17 7 0 10 -262144
-1 -1;
#X obj 1430 457 bng 15 250 50 0 empty empty empty 17 7 0 10 -262144
-1 -1;
#X obj 1452 457 bng 15 250 50 0 empty empty empty 17 7 0 10 -262144
-1 -1;
#X obj 1479 413 cond;
#X obj 1471 442 bng 15 250 50 0 empty empty empty 17 7 0 10 -262144
-1 -1;
#X obj 1492 442 bng 15 250 50 0 empty empty empty 17 7 0 10 -262144
-1 -1;
#X obj 1514 442 bng 15 250 50 0 empty empty empty 17 7 0 10 -262144
-1 -1;
#X obj 1541 403 cond;
#X obj 1533 432 bng 15 250 50 0 empty empty empty 17 7 0 10 -262144
-1 -1;
#X obj 1554 432 bng 15 250 50 0 empty empty empty 17 7 0 10 -262144
-1 -1;
#X obj 1576 432 bng 15 250 50 0 empty empty empty 17 7 0 10 -262144
-1 -1;
#X obj 1604 392 cond;
#X obj 1596 421 bng 15 250 50 0 empty empty empty 17 7 0 10 -262144
-1 -1;
#X obj 1617 421 bng 15 250 50 0 empty empty empty 17 7 0 10 -262144
-1 -1;
#X obj 1639 421 bng 15 250 50 0 empty empty empty 17 7 0 10 -262144
-1 -1;
#X obj 1666 383 cond;
#X obj 1658 412 bng 15 250 50 0 empty empty empty 17 7 0 10 -262144
-1 -1;
#X obj 1679 412 bng 15 250 50 0 empty empty empty 17 7 0 10 -262144
-1 -1;
#X obj 1701 412 bng 15 250 50 0 empty empty empty 17 7 0 10 -262144
-1 -1;
#X obj 1727 377 cond;
#X obj 1719 406 bng 15 250 50 0 empty empty empty 17 7 0 10 -262144
-1 -1;
#X obj 1740 406 bng 15 250 50 0 empty empty empty 17 7 0 10 -262144
-1 -1;
#X obj 1762 406 bng 15 250 50 0 empty empty empty 17 7 0 10 -262144
-1 -1;
#X obj 1790 372 cond;
#X obj 1782 401 bng 15 250 50 0 empty empty empty 17 7 0 10 -262144
-1 -1;
#X obj 1803 401 bng 15 250 50 0 empty empty empty 17 7 0 10 -262144
-1 -1;
#X obj 1825 401 bng 15 250 50 0 empty empty empty 17 7 0 10 -262144
-1 -1;
#X msg 1789 341 5000;
#X floatatom 554 804 5 0 0 0 - - -;
#X floatatom 617 793 5 0 0 0 - - -;
#X floatatom 677 782 5 0 0 0 - - -;
#X floatatom 738 772 5 0 0 0 - - -;
#X floatatom 799 759 5 0 0 0 - - -;
#X floatatom 863 745 5 0 0 0 - - -;
#X floatatom 921 730 5 0 0 0 - - -;
#X floatatom 981 711 5 0 0 0 - - -;
#X floatatom 1040 697 5 0 0 0 - - -;
#X floatatom 1101 682 5 0 0 0 - - -;
#X floatatom 1162 672 5 0 0 0 - - -;
#X floatatom 1224 653 5 0 0 0 - - -;
#X floatatom 1285 639 5 0 0 0 - - -;
#X floatatom 1347 622 5 0 0 0 - - -;
#X floatatom 1409 605 5 0 0 0 - - -;
#X floatatom 1471 584 5 0 0 0 - - -;
#X floatatom 1533 565 5 0 0 0 - - -;
#X floatatom 1596 547 5 0 0 0 - - -;
#X floatatom 1658 530 5 0 0 0 - - -;
#X floatatom 1719 515 5 0 0 0 - - -;
#X floatatom 1782 498 5 0 0 0 - - -;
#X connect 0 0 15 0;
#X connect 3 0 2 0;
#X connect 9 0 12 0;
#X connect 9 1 13 0;
#X connect 9 1 54 0;
#X connect 11 0 7 0;
#X connect 11 1 8 0;
#X connect 12 0 14 0;
#X connect 15 0 2 0;
#X connect 15 0 9 0;
#X connect 15 0 10 0;
#X connect 15 0 11 0;
#X connect 15 0 67 0;
#X connect 16 0 18 0;
#X connect 17 0 52 0;
#X connect 18 0 20 0;
#X connect 18 1 19 3;
#X connect 19 0 21 0;
#X connect 20 0 19 0;
#X connect 21 0 24 0;
#X connect 22 0 16 0;
#X connect 24 0 25 0;
#X connect 24 0 56 0;
#X connect 24 1 26 0;
#X connect 24 2 27 0;
#X connect 24 3 28 0;
#X connect 24 4 29 0;
#X connect 24 5 30 0;
#X connect 24 6 31 0;
#X connect 24 7 32 0;
#X connect 24 8 33 0;
#X connect 24 9 34 0;
#X connect 24 10 35 0;
#X connect 24 11 36 0;
#X connect 24 12 37 0;
#X connect 24 13 38 0;
#X connect 24 14 39 0;
#X connect 24 15 40 0;
#X connect 24 16 41 0;
#X connect 24 17 42 0;
#X connect 24 18 43 0;
#X connect 24 19 44 0;
#X connect 24 20 45 0;
#X connect 24 20 164 0;
#X connect 25 0 47 2;
#X connect 25 0 79 0;
#X connect 25 0 80 1;
#X connect 26 0 80 2;
#X connect 26 0 84 1;
#X connect 26 0 165 0;
#X connect 27 0 84 2;
#X connect 27 0 88 1;
#X connect 27 0 166 0;
#X connect 28 0 88 2;
#X connect 28 0 92 1;
#X connect 28 0 167 0;
#X connect 29 0 92 2;
#X connect 29 0 96 1;
#X connect 29 0 168 0;
#X connect 30 0 96 2;
#X connect 30 0 100 1;
#X connect 30 0 169 0;
#X connect 31 0 100 2;
#X connect 31 0 104 1;
#X connect 31 0 170 0;
#X connect 32 0 104 2;
#X connect 32 0 108 1;
#X connect 32 0 171 0;
#X connect 33 0 108 2;
#X connect 33 0 112 1;
#X connect 33 0 172 0;
#X connect 34 0 112 2;
#X connect 34 0 116 1;
#X connect 34 0 173 0;
#X connect 35 0 116 2;
#X connect 35 0 120 1;
#X connect 35 0 174 0;
#X connect 36 0 120 2;
#X connect 36 0 124 1;
#X connect 36 0 175 0;
#X connect 37 0 124 2;
#X connect 37 0 128 1;
#X connect 37 0 176 0;
#X connect 38 0 128 2;
#X connect 38 0 132 1;
#X connect 38 0 177 0;
#X connect 39 0 132 2;
#X connect 39 0 136 1;
#X connect 39 0 178 0;
#X connect 40 0 136 2;
#X connect 40 0 140 1;
#X connect 40 0 179 0;
#X connect 41 0 140 2;
#X connect 41 0 144 1;
#X connect 41 0 180 0;
#X connect 42 0 144 2;
#X connect 42 0 148 1;
#X connect 42 0 181 0;
#X connect 43 0 148 2;
#X connect 43 0 152 1;
#X connect 43 0 182 0;
#X connect 44 0 152 2;
#X connect 44 0 156 1;
#X connect 44 0 183 0;
#X connect 45 0 156 2;
#X connect 45 0 160 1;
#X connect 45 0 184 0;
#X connect 45 0 185 0;
#X connect 47 0 48 0;
#X connect 47 1 49 0;
#X connect 47 2 50 0;
#X connect 48 0 79 0;
#X connect 51 0 3 0;
#X connect 52 0 16 0;
#X connect 52 1 22 0;
#X connect 53 0 52 0;
#X connect 54 0 55 0;
#X connect 55 0 47 0;
#X connect 55 0 80 0;
#X connect 55 0 84 0;
#X connect 55 0 88 0;
#X connect 55 0 92 0;
#X connect 55 0 96 0;
#X connect 55 0 100 0;
#X connect 55 0 104 0;
#X connect 55 0 108 0;
#X connect 55 0 112 0;
#X connect 55 0 116 0;
#X connect 55 0 120 0;
#X connect 55 0 124 0;
#X connect 55 0 128 0;
#X connect 55 0 132 0;
#X connect 55 0 136 0;
#X connect 55 0 140 0;
#X connect 55 0 144 0;
#X connect 55 0 148 0;
#X connect 55 0 152 0;
#X connect 55 0 156 0;
#X connect 55 0 160 0;
#X connect 56 0 47 1;
#X connect 57 0 59 0;
#X connect 58 0 64 0;
#X connect 59 0 61 0;
#X connect 59 1 60 3;
#X connect 60 0 62 0;
#X connect 61 0 60 0;
#X connect 62 0 24 0;
#X connect 64 0 57 0;
#X connect 64 1 66 0;
#X connect 65 0 64 0;
#X connect 66 0 57 0;
#X connect 68 0 71 0;
#X connect 68 0 71 1;
#X connect 69 0 68 1;
#X connect 70 0 69 0;
#X connect 72 0 73 0;
#X connect 73 0 68 2;
#X connect 74 0 71 0;
#X connect 74 0 71 1;
#X connect 75 0 74 1;
#X connect 76 0 74 0;
#X connect 77 0 78 0;
#X connect 78 0 76 0;
#X connect 79 0 68 0;
#X connect 80 0 81 0;
#X connect 80 1 82 0;
#X connect 80 2 83 0;
#X connect 81 0 165 0;
#X connect 84 0 85 0;
#X connect 84 1 86 0;
#X connect 84 2 87 0;
#X connect 85 0 166 0;
#X connect 88 0 89 0;
#X connect 88 1 90 0;
#X connect 88 2 91 0;
#X connect 89 0 167 0;
#X connect 92 0 93 0;
#X connect 92 1 94 0;
#X connect 92 2 95 0;
#X connect 93 0 168 0;
#X connect 96 0 97 0;
#X connect 96 1 98 0;
#X connect 96 2 99 0;
#X connect 97 0 169 0;
#X connect 100 0 101 0;
#X connect 100 1 102 0;
#X connect 100 2 103 0;
#X connect 101 0 170 0;
#X connect 104 0 105 0;
#X connect 104 1 106 0;
#X connect 104 2 107 0;
#X connect 105 0 171 0;
#X connect 108 0 109 0;
#X connect 108 1 110 0;
#X connect 108 2 111 0;
#X connect 109 0 172 0;
#X connect 112 0 113 0;
#X connect 112 1 114 0;
#X connect 112 2 115 0;
#X connect 113 0 173 0;
#X connect 116 0 117 0;
#X connect 116 1 118 0;
#X connect 116 2 119 0;
#X connect 117 0 174 0;
#X connect 120 0 121 0;
#X connect 120 1 122 0;
#X connect 120 2 123 0;
#X connect 121 0 175 0;
#X connect 124 0 125 0;
#X connect 124 1 126 0;
#X connect 124 2 127 0;
#X connect 125 0 176 0;
#X connect 128 0 129 0;
#X connect 128 1 130 0;
#X connect 128 2 131 0;
#X connect 129 0 177 0;
#X connect 132 0 133 0;
#X connect 132 1 134 0;
#X connect 132 2 135 0;
#X connect 133 0 178 0;
#X connect 136 0 137 0;
#X connect 136 1 138 0;
#X connect 136 2 139 0;
#X connect 137 0 179 0;
#X connect 140 0 141 0;
#X connect 140 1 142 0;
#X connect 140 2 143 0;
#X connect 141 0 180 0;
#X connect 144 0 145 0;
#X connect 144 1 146 0;
#X connect 144 2 147 0;
#X connect 145 0 181 0;
#X connect 148 0 149 0;
#X connect 148 1 150 0;
#X connect 148 2 151 0;
#X connect 149 0 182 0;
#X connect 152 0 153 0;
#X connect 152 1 154 0;
#X connect 152 2 155 0;
#X connect 153 0 183 0;
#X connect 156 0 157 0;
#X connect 156 1 158 0;
#X connect 156 2 159 0;
#X connect 157 0 184 0;
#X connect 160 0 161 0;
#X connect 160 1 162 0;
#X connect 160 2 163 0;
#X connect 161 0 185 0;
#X connect 164 0 160 2;
#X connect 165 0 68 0;
#X connect 166 0 68 0;
#X connect 167 0 68 0;
#X connect 168 0 68 0;
#X connect 169 0 68 0;
#X connect 170 0 68 0;
#X connect 171 0 68 0;
#X connect 172 0 68 0;
#X connect 173 0 68 0;
#X connect 174 0 68 0;
#X connect 175 0 68 0;
#X connect 176 0 68 0;
#X connect 177 0 68 0;
#X connect 178 0 68 0;
#X connect 179 0 68 0;
#X connect 180 0 68 0;
#X connect 181 0 68 0;
#X connect 182 0 68 0;
#X connect 183 0 68 0;
#X connect 184 0 68 0;
#X connect 185 0 68 0;
