#N canvas 914 0 996 959 12;
#X text 32 87 input frequency;
#X obj 147 151 *;
#X floatatom 147 209 5 0 0 0 - - -;
#X obj 176 151 *;
#X obj 206 151 *;
#X floatatom 185 209 5 0 0 0 - - -;
#X floatatom 223 209 5 0 0 0 - - -;
#X floatatom 261 209 5 0 0 0 - - -;
#X floatatom 299 209 5 0 0 0 - - -;
#X floatatom 337 209 5 0 0 0 - - -;
#X floatatom 375 209 5 0 0 0 - - -;
#X floatatom 413 209 5 0 0 0 - - -;
#X floatatom 451 209 5 0 0 0 - - -;
#X floatatom 489 209 5 0 0 0 - - -;
#X floatatom 527 209 5 0 0 0 - - -;
#X floatatom 565 209 5 0 0 0 - - -;
#X floatatom 603 209 5 0 0 0 - - -;
#X floatatom 641 209 5 0 0 0 - - -;
#X floatatom 679 209 5 0 0 0 - - -;
#X floatatom 717 209 5 0 0 0 - - -;
#X floatatom 755 209 5 0 0 0 - - -;
#X floatatom 793 209 5 0 0 0 - - -;
#X floatatom 831 209 5 0 0 0 - - -;
#X floatatom 869 209 5 0 0 0 - - -;
#X floatatom 907 209 5 0 0 0 - - -;
#X obj 247 43 list 1 2 3 4 5 6 7 8 9 10 11 12 13 14 15 16 17 18 19
20 21;
#X obj 247 86 unpack f f f f f f f f f f f f f f f f f f f f f;
#X obj 236 151 *;
#X obj 266 151 *;
#X obj 297 151 *;
#X obj 328 151 *;
#X obj 359 151 *;
#X obj 391 151 *;
#X obj 421 151 *;
#X obj 453 151 *;
#X obj 484 151 *;
#X obj 514 151 *;
#X obj 545 151 *;
#X obj 574 151 *;
#X obj 602 151 *;
#X obj 631 151 *;
#X obj 659 151 *;
#X obj 687 151 *;
#X obj 717 151 *;
#X obj 747 151 *;
#X text 663 42 TODO: Loop it properly;
#X obj 147 343 outlet;
#X floatatom 147 87 5 0 0 0 - - -;
#X obj 147 3 bng 15 250 50 0 empty empty empty 17 7 0 10 -262144 -1
-1;
#X obj 147 24 t b b;
#X text 46 -16 bang;
#X obj 5 -16 inlet;
#X obj 74 68 inlet;
#X obj 195 -2 loadbang;
#X obj 219 343 print;
#X obj 147 293 pack f f f f f f f f f f f f f f f f f f f f f;
#X connect 1 0 2 0;
#X connect 2 0 55 0;
#X connect 3 0 5 0;
#X connect 4 0 6 0;
#X connect 5 0 55 1;
#X connect 6 0 55 2;
#X connect 7 0 55 3;
#X connect 8 0 55 4;
#X connect 9 0 55 5;
#X connect 10 0 55 6;
#X connect 11 0 55 7;
#X connect 12 0 55 8;
#X connect 13 0 55 9;
#X connect 14 0 55 10;
#X connect 15 0 55 11;
#X connect 16 0 55 12;
#X connect 17 0 55 13;
#X connect 18 0 55 14;
#X connect 19 0 55 15;
#X connect 20 0 55 16;
#X connect 21 0 55 17;
#X connect 22 0 55 18;
#X connect 23 0 55 19;
#X connect 24 0 55 20;
#X connect 25 0 26 0;
#X connect 26 0 1 1;
#X connect 26 1 3 1;
#X connect 26 2 4 1;
#X connect 26 3 27 1;
#X connect 26 4 28 1;
#X connect 26 5 29 1;
#X connect 26 6 30 1;
#X connect 26 7 31 1;
#X connect 26 8 32 1;
#X connect 26 9 33 1;
#X connect 26 10 34 1;
#X connect 26 11 35 1;
#X connect 26 12 36 1;
#X connect 26 13 37 1;
#X connect 26 14 38 1;
#X connect 26 15 39 1;
#X connect 26 16 40 1;
#X connect 26 17 41 1;
#X connect 26 18 42 1;
#X connect 26 19 43 1;
#X connect 26 20 44 1;
#X connect 27 0 7 0;
#X connect 28 0 8 0;
#X connect 29 0 9 0;
#X connect 30 0 10 0;
#X connect 31 0 11 0;
#X connect 32 0 12 0;
#X connect 33 0 13 0;
#X connect 34 0 14 0;
#X connect 35 0 15 0;
#X connect 36 0 16 0;
#X connect 37 0 17 0;
#X connect 38 0 18 0;
#X connect 39 0 19 0;
#X connect 40 0 20 0;
#X connect 41 0 21 0;
#X connect 42 0 22 0;
#X connect 43 0 23 0;
#X connect 44 0 24 0;
#X connect 47 0 1 0;
#X connect 47 0 3 0;
#X connect 47 0 4 0;
#X connect 47 0 27 0;
#X connect 47 0 28 0;
#X connect 47 0 29 0;
#X connect 47 0 30 0;
#X connect 47 0 31 0;
#X connect 47 0 32 0;
#X connect 47 0 33 0;
#X connect 47 0 34 0;
#X connect 47 0 35 0;
#X connect 47 0 36 0;
#X connect 47 0 37 0;
#X connect 47 0 38 0;
#X connect 47 0 39 0;
#X connect 47 0 40 0;
#X connect 47 0 41 0;
#X connect 47 0 42 0;
#X connect 47 0 43 0;
#X connect 47 0 44 0;
#X connect 48 0 49 0;
#X connect 49 0 47 0;
#X connect 49 1 25 0;
#X connect 51 0 48 0;
#X connect 52 0 47 0;
#X connect 53 0 49 0;
#X connect 55 0 46 0;
#X connect 55 0 54 0;
