#N canvas 471 416 1272 504 10;
#X obj 103 0 table one;
#X obj 182 0 table two;
#X obj 258 0 table three;
#X text 244 -2 =;
#X text 167 1 *;
#X obj 116 142 tabread one;
#X obj 200 142 tabread two;
#X obj 83 227 tabwrite three;
#X obj 41 130 send three;
#X obj 162 89 int;
#X obj 255 89 + 1;
#X msg 209 58 0;
#X obj 116 193 *;
#X msg 41 106 resize \$1;
#X floatatom 239 214 5 0 0 0 - - -;
#X obj 285 56 sel 99;
#X obj 115 36 tgl 15 0 empty empty empty 0 -6 0 10 -262144 -1 -1 0
1;
#X obj 115 55 metro;
#X obj 32 7 bng 15 250 50 0 empty empty empty 17 7 0 10 -262144 -1
-1;
#X connect 5 0 12 0;
#X connect 6 0 12 1;
#X connect 9 0 10 0;
#X connect 9 0 13 0;
#X connect 9 0 6 0;
#X connect 9 0 5 0;
#X connect 9 0 7 1;
#X connect 9 0 14 0;
#X connect 9 0 15 0;
#X connect 10 0 9 1;
#X connect 11 0 9 1;
#X connect 11 0 16 0;
#X connect 12 0 7 0;
#X connect 13 0 8 0;
#X connect 15 0 11 0;
#X connect 16 0 17 0;
#X connect 17 0 9 0;
#X connect 18 0 16 0;
